<svg xmlns="http://www.w3.org/2000/svg" width="17.23" height="16.351" viewBox="0 0 17.23 16.351">
  <g id="Air" transform="translate(-13.28 -12.594)">
    <path id="Path_342" data-name="Path 342" d="M30.51,21.681c-.054.388-.095.778-.165,1.162a8.3,8.3,0,0,1-1.493,3.438,8.6,8.6,0,0,1-3,2.576.516.516,0,0,1-.673-.079.5.5,0,0,1,.126-.767c.248-.153.509-.285.751-.446a7.4,7.4,0,0,0,3.282-4.833,7.6,7.6,0,0,0-14.77-3.538,7.383,7.383,0,0,0,1.563,6.973,7.193,7.193,0,0,0,2.044,1.675c.073.041.148.081.217.128a.5.5,0,0,1,.165.679.485.485,0,0,1-.672.182,15.1,15.1,0,0,1-1.5-1.011,8.319,8.319,0,0,1-2.573-3.633,8.564,8.564,0,0,1-.5-2.257c-.007-.083-.022-.165-.033-.248V20.7c.014-.121.028-.242.041-.364A8.645,8.645,0,0,1,21.533,12.6a8.19,8.19,0,0,1,4.751,1.2,8.49,8.49,0,0,1,4.091,5.922c.061.323.09.652.134.978v.976Z" fill="#fff"/>
    <path id="Path_343" data-name="Path 343" d="M91.24,96.406a5.8,5.8,0,0,1,3.09-5.033,5.537,5.537,0,0,1,3.742-.638,5.891,5.891,0,0,1,1.745,11.052.5.5,0,0,1-.547-.013.47.47,0,0,1-.212-.472.531.531,0,0,1,.324-.41,4.9,4.9,0,0,0,.54-8.367,4.637,4.637,0,0,0-3.042-.866,4.772,4.772,0,0,0-3.754,2.086,4.621,4.621,0,0,0-.869,3.156,4.783,4.783,0,0,0,2.629,3.989.542.542,0,0,1,.325.41.472.472,0,0,1-.208.474.487.487,0,0,1-.532.023,5.78,5.78,0,0,1-1.564-1.155,5.988,5.988,0,0,1-1.669-4.236Z" transform="translate(-75.241 -75.332)" fill="#fff"/>
    <path id="Path_344" data-name="Path 344" d="M173.022,168.84a3.483,3.483,0,0,1,2.405,5.826,3.819,3.819,0,0,1-.963.739.522.522,0,0,1-.728-.178.507.507,0,0,1,.2-.719,2.656,2.656,0,0,0,1.1-1.1,2.439,2.439,0,0,0-1.835-3.489,2.412,2.412,0,0,0-2.766,2.341,2.333,2.333,0,0,0,1.124,2.115c.087.058.182.1.268.162a.519.519,0,0,1-.518.9,3.356,3.356,0,0,1-1.428-1.317,3.489,3.489,0,0,1,3.136-5.271Z" transform="translate(-150.97 -151.112)" fill="#fff"/>
  </g>
</svg>
