<svg xmlns="http://www.w3.org/2000/svg" width="17.229" height="17.229" viewBox="0 0 17.229 17.229">
  <path id="coins" d="M0,13.638v1.437c0,1.188,2.894,2.154,6.461,2.154s6.461-.966,6.461-2.154V13.638c-1.39.979-3.93,1.437-6.461,1.437S1.39,14.618,0,13.638ZM10.768,4.307c3.567,0,6.461-.966,6.461-2.154S14.335,0,10.768,0,4.307.966,4.307,2.154,7.2,4.307,10.768,4.307ZM0,10.109v1.736C0,13.033,2.894,14,6.461,14s6.461-.966,6.461-2.154V10.109c-1.39,1.144-3.934,1.736-6.461,1.736S1.39,11.253,0,10.109Zm14,.37c1.928-.374,3.23-1.067,3.23-1.864V7.178A8.263,8.263,0,0,1,14,8.339ZM6.461,5.384C2.894,5.384,0,6.589,0,8.076s2.894,2.692,6.461,2.692,6.461-1.2,6.461-2.692S10.028,5.384,6.461,5.384Zm7.38,1.895c2.019-.363,3.389-1.077,3.389-1.895V3.947a10.955,10.955,0,0,1-5.408,1.407A3.768,3.768,0,0,1,13.84,7.279Z" fill="#fff"/>
</svg>
