<?xml version="1.0" encoding="utf-8"?>
<!-- Generator: Adobe Illustrator 26.0.1, SVG Export Plug-In . SVG Version: 6.00 Build 0)  -->
<svg version="1.1" id="Layer_1" xmlns="http://www.w3.org/2000/svg" xmlns:xlink="http://www.w3.org/1999/xlink" x="0px" y="0px"
	 viewBox="0 0 18.1 15.3" style="enable-background:new 0 0 18.1 15.3;" xml:space="preserve">
<style type="text/css">
	.st0{fill:none;stroke:#FFFFFF;stroke-width:0.85;stroke-miterlimit:10;}
</style>
<path class="st0" d="M13.3,14.2h-0.1l-0.9-1.5l1.4-0.7c-0.2-0.3-0.4-0.3-0.7-0.2c-2.6,1.1-5.4,1.1-8,0c-0.2-0.1-0.5-0.1-0.6,0.1
	c0,0,0,0,0,0.1l1.4,0.7l-0.9,1.5H4.8C4.7,14.1,4.6,14,4.5,14c-1.3-0.4-2.6-1.1-3.7-1.9c-0.2-0.1-0.3-0.3-0.3-0.6c0-0.3,0-0.7-0.1-1
	v-0.3c0-0.1,0-0.3,0-0.4c0.1-2.5,0.9-4.9,2.2-7c0.2-0.5,0.7-0.8,1.2-1c0.9-0.2,1.8-0.5,2.7-0.8h0.1c0.1,0.2,0.2,0.5,0.3,0.7
	S7.1,2,7.3,2c0.9,0,1.9,0,2.8,0c0.3,0,0.7,0.2,0.9,0s0.3-0.6,0.4-0.9h0.1c0,0,0.1,0,0.1,0.1c1.1,0.2,2.1,0.5,3.1,0.9
	c0.1,0.1,0.2,0.1,0.3,0.2c1.2,1.7,1.9,3.6,2.3,5.6c0.1,0.8,0.2,1.7,0.3,2.5v0.2c0,0.3-0.1,0.6-0.1,1c0,0.2-0.1,0.5-0.3,0.6
	c-0.6,0.4-1.2,0.8-1.9,1.1S14,13.9,13.3,14.2z M13.4,8.3c0-0.8-0.5-1.5-1.2-1.7c-0.8-0.2-1.6,0.4-1.8,1.2c-0.3,0.9,0.2,1.9,1.1,2.2
	c0.9,0.2,1.7-0.3,1.9-1.2C13.4,8.7,13.5,8.5,13.4,8.3z M6.2,10C7,10,7.7,9.3,7.7,8.4c0.1-0.8-0.4-1.6-1.2-1.8C5.7,6.5,5,6.9,4.8,7.6
	c-0.4,0.9,0,1.9,0.9,2.3C5.8,9.9,6,10,6.2,10z"/>
</svg>
