<?xml version="1.0" encoding="utf-8"?>
<!-- Generator: Adobe Illustrator 16.0.0, SVG Export Plug-In . SVG Version: 6.00 Build 0)  -->
<!DOCTYPE svg PUBLIC "-//W3C//DTD SVG 1.1//EN" "http://www.w3.org/Graphics/SVG/1.1/DTD/svg11.dtd">
<svg version="1.1" id="Layer_1" xmlns="http://www.w3.org/2000/svg" xmlns:xlink="http://www.w3.org/1999/xlink" x="0px" y="0px"
	 width="20px" height="20px" viewBox="0 0 20 20" enable-background="new 0 0 20 20" xml:space="preserve">
<path fill="#4C549B" d="M12.27,0.125v4.938h4.543L12.27,0.125z M11.137,5.063V0.125H4.891c-0.941,0-1.703,0.829-1.703,1.852v16.047
	c0,1.022,0.762,1.852,1.703,1.852h10.219c0.94,0,1.703-0.828,1.703-1.852V6.297h-4.51C11.644,6.297,11.137,5.745,11.137,5.063z
	 M12.84,16.172H7.162c-0.313,0-0.568-0.277-0.568-0.617s0.255-0.617,0.568-0.617h5.678c0.313,0,0.566,0.276,0.566,0.617
	C13.406,15.895,13.15,16.172,12.84,16.172z M12.84,13.703H7.162c-0.313,0-0.568-0.277-0.568-0.617s0.255-0.617,0.568-0.617h5.678
	c0.313,0,0.566,0.276,0.566,0.617C13.406,13.426,13.15,13.703,12.84,13.703z M13.406,10.617c0,0.339-0.256,0.617-0.566,0.617H7.162
	c-0.313,0-0.568-0.278-0.568-0.617S6.849,10,7.162,10h5.678C13.15,10,13.406,10.278,13.406,10.617z"/>
</svg>
