<svg xmlns="http://www.w3.org/2000/svg" width="18" height="13.128" viewBox="0 0 18 13.128">
  <path id="exchange" d="M0,7.612V7.087A.817.817,0,0,1,.844,6.3H13.5V4.724a.853.853,0,0,1,1.44-.557l2.813,2.625a.751.751,0,0,1,0,1.114L14.94,10.532a.853.853,0,0,1-1.44-.557V8.4H.844A.817.817,0,0,1,0,7.612ZM17.156,12.6H4.5V11.025a.853.853,0,0,0-1.44-.557L.247,13.093a.751.751,0,0,0,0,1.114L3.06,16.832a.853.853,0,0,0,1.44-.557V14.7H17.156A.817.817,0,0,0,18,13.913v-.525A.817.817,0,0,0,17.156,12.6Z" transform="translate(0 -3.936)" fill="#fff"/>
</svg>
