<svg xmlns="http://www.w3.org/2000/svg" width="18.23" height="18.23" viewBox="0 0 18.23 18.23">
  <path id="Icon_metro-facebook" data-name="Icon metro-facebook" d="M16.929,1.928H5.442A2.872,2.872,0,0,0,2.571,4.8V16.286a2.872,2.872,0,0,0,2.871,2.872h5.744V11.62H9.032V9.466h2.154V7.851a2.692,2.692,0,0,1,2.692-2.692H16.57V7.312H13.878a.538.538,0,0,0-.538.538V9.466H16.3l-.538,2.154H13.339v7.538h3.59A2.872,2.872,0,0,0,19.8,16.286V4.8a2.872,2.872,0,0,0-2.871-2.872Z" transform="translate(-2.071 -1.428)" fill="none" stroke="#fff" stroke-linecap="round" stroke-linejoin="round" stroke-width="1"/>
</svg>
