<svg xmlns="http://www.w3.org/2000/svg" width="53.275" height="53.199" viewBox="0 0 53.275 53.199">
  <path id="Projects3" d="M27.065,53.2H26.23c-.252-.112-.509-.215-.755-.338q-4.44-2.216-8.877-4.439-7.592-3.8-15.19-7.587A2.333,2.333,0,0,1,.145,39.6a2.067,2.067,0,0,1,1.106-2.651c2.629-1.331,5.265-2.64,7.9-3.958.158-.079.313-.172.522-.293-.256-.133-.418-.221-.591-.306Q5.222,30.46,1.364,28.538A2.268,2.268,0,0,1,.129,27.274a2.082,2.082,0,0,1,1.158-2.632Q5.21,22.666,9.14,20.714c.16-.079.313-.17.538-.291-.254-.134-.418-.225-.586-.313q-3.855-1.93-7.715-3.854a2.267,2.267,0,0,1-1.26-1.307,2.1,2.1,0,0,1,1.253-2.636Q13.289,6.359,25.2.389a2.91,2.91,0,0,1,2.893,0c5.934,3,11.889,5.954,17.837,8.925l6.041,3.019a1.946,1.946,0,0,1,1.2,1.345,2.067,2.067,0,0,1-1.325,2.611q-3.832,1.921-7.666,3.834c-.163.081-.319.178-.539.3.225.123.383.217.548.3q3.856,1.929,7.713,3.855a2,2,0,0,1,1.3,1.819,2.068,2.068,0,0,1-1.293,2.142c-2.594,1.278-5.176,2.582-7.761,3.876-.159.079-.313.172-.522.292.255.133.418.222.59.307,2.555,1.278,5.117,2.549,7.66,3.842a2.994,2.994,0,0,1,.949.7,2.125,2.125,0,0,1-.851,3.224q-5.942,2.983-11.893,5.953Q33.58,49.976,27.065,53.2ZM6.769,14.278c.209.112.3.172.411.226q9.549,4.775,19.093,9.555a.81.81,0,0,0,.82-.037Q36.546,19.288,46,14.563c.148-.074.288-.163.49-.278-.173-.1-.285-.168-.4-.227Q36.568,9.292,27.049,4.519a.843.843,0,0,0-.866.048q-7.969,3.992-15.941,7.969C9.115,13.1,7.989,13.665,6.769,14.278Zm0,12.272c.209.117.325.186.443.245q9.522,4.762,19.041,9.531a.818.818,0,0,0,.821-.013q9.494-4.76,18.995-9.51c.13-.065.25-.146.424-.25-.209-.116-.359-.2-.511-.278-2.193-1.1-4.4-2.193-6.593-3.3a.9.9,0,0,0-.913,0c-3.509,1.767-7.035,3.5-10.537,5.286a2.647,2.647,0,0,1-2.611-.015c-3.487-1.775-7-3.513-10.5-5.25a.936.936,0,0,0-.706-.094c-2.428,1.182-4.841,2.4-7.357,3.651Zm39.759,12.3c-.249-.136-.395-.222-.545-.3-2.2-1.1-4.4-2.193-6.594-3.305a.9.9,0,0,0-.912,0c-3.526,1.775-7.065,3.521-10.586,5.306a2.562,2.562,0,0,1-2.515-.013c-3.489-1.775-7-3.5-10.492-5.265a.976.976,0,0,0-1.006-.011c-2.193,1.117-4.395,2.2-6.594,3.3-.147.073-.286.163-.484.276.192.1.32.187.453.254q9.477,4.737,18.95,9.481a.9.9,0,0,0,.912-.011q7.543-3.788,15.1-7.553C43.62,40.316,45.024,39.607,46.528,38.854Z" transform="translate(0.001 -0.004)" fill="#16f9b2"/>
</svg>
