<svg xmlns="http://www.w3.org/2000/svg" width="18.468" height="18.445" viewBox="0 0 18.468 18.445">
  <path id="Home" d="M16.511,10.9v5.448a1.993,1.993,0,0,1-2.094,2.1H11.672c-.442,0-.647-.207-.647-.655V13.659a.919.919,0,0,0-1.018-1.015c-.518,0-1.035,0-1.553,0a.911.911,0,0,0-.981.979q0,2.076,0,4.153c0,.471-.2.673-.665.673H4.064a1.99,1.99,0,0,1-2.076-2.08q0-2.61,0-5.218V10.9H1.753A1.678,1.678,0,0,1,.135,9.849a1.644,1.644,0,0,1,.4-1.875C1.666,6.828,2.81,5.69,3.951,4.551,5.287,3.215,6.644,1.9,7.951.534A1.856,1.856,0,0,1,10.543.528q3.677,3.74,7.414,7.421a1.753,1.753,0,0,1-.3,2.719,1.72,1.72,0,0,1-.824.233Zm-4.4,6.463h2.287a.922.922,0,0,0,1.033-1.035V10.442a.56.56,0,0,1,.625-.624c.254,0,.506,0,.758,0a.6.6,0,0,0,.571-.443.687.687,0,0,0-.259-.719q-3.674-3.668-7.341-7.34a.648.648,0,0,0-1.069.005L2.174,7.857c-.3.3-.6.594-.892.894a.619.619,0,0,0,.446,1.067h.614c.547,0,.729.179.729.72,0,1.932.013,3.864-.007,5.8A.971.971,0,0,0,4.09,17.369c.7-.024,1.4-.006,2.094-.006h.2v-.239c0-1.222-.01-2.444.008-3.665a1.919,1.919,0,0,1,1.746-1.87c.736-.049,1.478-.01,2.218-.008a.827.827,0,0,1,.178.028,1.973,1.973,0,0,1,1.568,1.965c.007,1.186,0,2.371,0,3.557Z" transform="translate(0.002 -0.004)" fill="#fff"/>
</svg>
