<svg xmlns="http://www.w3.org/2000/svg" width="17.532" height="19.483" viewBox="0 0 17.532 19.483">
  <path id="fingerprint" d="M18.926,5.406a.453.453,0,0,1-.224-.058,11.4,11.4,0,0,0-10.852,0,.488.488,0,1,1-.468-.857,12.4,12.4,0,0,1,11.768-.01.493.493,0,0,1-.224.925ZM4.985,10.521a.508.508,0,0,1-.283-.088.486.486,0,0,1-.117-.682A10.072,10.072,0,0,1,8.239,6.565a11.245,11.245,0,0,1,10.044-.01,10.11,10.11,0,0,1,3.653,3.166.489.489,0,0,1-.8.565,9.145,9.145,0,0,0-3.3-2.864,10.265,10.265,0,0,0-9.157.01,9.242,9.242,0,0,0-3.312,2.884.425.425,0,0,1-.38.2Zm6.089,11.758a.457.457,0,0,1-.341-.146,9.848,9.848,0,0,1-1.958-2.572,8.648,8.648,0,0,1-1.023-4.228,5.4,5.4,0,0,1,5.514-5.251,5.4,5.4,0,0,1,5.514,5.251.487.487,0,0,1-.974,0,4.419,4.419,0,0,0-4.54-4.277,4.419,4.419,0,0,0-4.54,4.277,7.632,7.632,0,0,0,.906,3.751,9.221,9.221,0,0,0,1.8,2.357.5.5,0,0,1,0,.692A.534.534,0,0,1,11.074,22.279Zm6.985-1.8a5.246,5.246,0,0,1-3.02-.867,5.187,5.187,0,0,1-2.319-4.277.487.487,0,0,1,.974,0,4.19,4.19,0,0,0,1.89,3.468,4.271,4.271,0,0,0,2.474.692,6.438,6.438,0,0,0,1.013-.1.489.489,0,0,1,.166.964,6.653,6.653,0,0,1-1.179.117ZM16.1,22.483a.57.57,0,0,1-.127-.019,7.6,7.6,0,0,1-3.624-2.046,7.108,7.108,0,0,1-2.114-5.085,3,3,0,0,1,6,0,2.031,2.031,0,0,0,4.053,0,6.871,6.871,0,0,0-7.063-6.654,7.112,7.112,0,0,0-6.439,3.926,6.267,6.267,0,0,0-.575,2.728,9.681,9.681,0,0,0,.653,3.517.475.475,0,0,1-.283.623.483.483,0,0,1-.623-.283,10.853,10.853,0,0,1-.711-3.858,7.319,7.319,0,0,1,.662-3.156A8.085,8.085,0,0,1,13.227,7.7a7.847,7.847,0,0,1,8.037,7.628,3,3,0,0,1-6,0,2.031,2.031,0,0,0-4.053,0,6.135,6.135,0,0,0,1.822,4.394,6.624,6.624,0,0,0,3.186,1.8.484.484,0,0,1,.341.594.475.475,0,0,1-.458.37Z" transform="translate(-4.495 -3)" fill="#fff"/>
</svg>
