<?xml version="1.0" encoding="utf-8"?>
<!-- Generator: Adobe Illustrator 26.0.1, SVG Export Plug-In . SVG Version: 6.00 Build 0)  -->
<svg version="1.1" xmlns="http://www.w3.org/2000/svg" xmlns:xlink="http://www.w3.org/1999/xlink" x="0px" y="0px"
	 viewBox="0 0 18.5 25.1" style="enable-background:new 0 0 18.5 25.1;" xml:space="preserve">
<style type="text/css">
	.st0{display:none;}
	.st1{display:inline;fill:#020202;}
	.st2{fill:#FFFFFF;}
	.st3{fill:#F2F2F2;}
	.st4{font-family:'MyriadPro-Bold';}
	.st5{font-size:7.1396px;}
</style>
<g id="Layer_2" class="st0">
	<rect x="-8.4" y="-7.4" class="st1" width="36.8" height="38.3"/>
</g>
<g id="LaunchPad">
	<path id="Path_1" class="st2" d="M13.5,23.1c-0.4,0.6-1.1,1-1.8,0.9c-1.6,0-3.3,0-4.9,0c-0.7,0.1-1.4-0.3-1.8-0.9l-2.2,1.7
		c-0.3,0.3-0.8,0.4-1.2,0.2c-0.4-0.2-0.7-0.6-0.7-1.1c-0.3-1.4-0.5-2.8-0.8-4.2c-0.1-0.6,0.1-1.1,0.4-1.5c0.7-0.8,1.3-1.6,2-2.5
		c0.1-0.2,0.2-0.4,0.2-0.5c0-1.2,0-2.5,0-3.7c0.1-1.6,0.5-3.2,1.1-4.7c1-2.4,2.5-4.6,4.4-6.4c0.6-0.6,1.6-0.6,2.3,0c0,0,0,0,0.1,0.1
		c1.7,1.7,3.1,3.7,4.1,5.9c0.8,1.7,1.3,3.5,1.4,5.4c0.1,1.2,0,2.3,0,3.5c0,0.1,0,0.2,0.1,0.3c0.5,0.7,1,1.4,1.6,2
		c0.7,0.8,1,1.9,0.7,2.9c-0.3,1.1-0.5,2.3-0.7,3.5c0,0.7-0.6,1.1-1.2,1.1c-0.3,0-0.5-0.1-0.7-0.3c-0.7-0.5-1.4-1.1-2-1.6
		C13.7,23.2,13.6,23.1,13.5,23.1z M9.3,19.1c1.4,0,2.9,0,4.3,0c0.3,0,0.4-0.1,0.4-0.4c0.6-2.2,0.8-4.4,0.6-6.7
		c-0.1-1.7-0.5-3.4-1.2-5c-0.9-2-2.2-3.9-3.8-5.5c-0.3-0.3-0.5-0.3-0.8,0C7.3,3.2,6,5,5.1,7C4,9.5,3.6,12.1,3.9,14.8
		c0.1,1.3,0.3,2.7,0.7,3.9C4.6,19,4.7,19.1,5,19.1C6.4,19.1,7.8,19.1,9.3,19.1L9.3,19.1z M5.1,20.5c0.4,0.7,0.7,1.3,1.1,1.8
		c0.1,0.1,0.3,0.2,0.4,0.2c1.8,0,3.5,0,5.3,0c0.1,0,0.3-0.1,0.4-0.2c0.4-0.6,0.7-1.2,1.1-1.9L5.1,20.5z M2.1,23.6l2.2-1.7
		c-0.3-0.8-0.6-1.5-0.8-2.2S3,18.2,2.8,17.4c-0.5,0.6-0.9,1.2-1.4,1.8c-0.1,0.1-0.1,0.3-0.1,0.4c0.1,0.5,0.2,1,0.3,1.5
		C1.8,21.9,1.9,22.7,2.1,23.6z M16.4,23.6c0.3-1.3,0.5-2.6,0.7-3.9c0-0.2,0-0.4-0.1-0.5c-0.4-0.6-0.9-1.2-1.4-1.7
		c-0.2,0.8-0.4,1.6-0.6,2.3s-0.6,1.5-0.9,2.2L16.4,23.6z"/>
	<path id="Path_2" class="st2" d="M9.2,13.4c-1.8,0-3.2-1.5-3.2-3.2S7.5,7,9.3,7l0,0c1.8,0,3.2,1.5,3.2,3.2
		C12.5,12,11.1,13.4,9.2,13.4C9.3,13.4,9.3,13.4,9.2,13.4z M11.2,10.2c0-1.1-0.8-1.9-1.9-2c-1.1,0-1.9,0.8-2,1.9l0,0
		c0,1.1,0.9,1.9,1.9,2C10.3,12.2,11.1,11.3,11.2,10.2C11.2,10.3,11.2,10.2,11.2,10.2L11.2,10.2z"/>
	<circle class="st3" cx="15.1" cy="8.9" r="3.2"/>
	<text transform="matrix(1 0 0 1 12.9817 10.9674)" class="st4 st5">+</text>
</g>
</svg>
