<svg id="LaunchPad" xmlns="http://www.w3.org/2000/svg" width="18.468" height="25.13" viewBox="0 0 18.468 25.13">
  <path id="Path_1" data-name="Path 1" d="M13.5,23.082A1.882,1.882,0,0,1,11.724,24c-1.632-.026-3.264-.008-4.9-.008a1.934,1.934,0,0,1-1.848-.871L2.762,24.858a1.1,1.1,0,0,1-1.224.154A1.328,1.328,0,0,1,.817,23.96C.553,22.552.281,21.145.028,19.734a1.877,1.877,0,0,1,.416-1.543q.976-1.23,1.957-2.455a.758.758,0,0,0,.16-.548c-.016-1.23-.021-2.463.046-3.69A14.032,14.032,0,0,1,3.725,6.835,18.657,18.657,0,0,1,8.095.482a1.6,1.6,0,0,1,2.333.042A19.31,19.31,0,0,1,14.57,6.409a14.713,14.713,0,0,1,1.352,5.41c.059,1.161.012,2.332.022,3.493a.569.569,0,0,0,.117.315c.53.682,1.029,1.4,1.616,2.02a2.846,2.846,0,0,1,.667,2.855c-.272,1.144-.46,2.312-.679,3.471a1.179,1.179,0,0,1-1.938.839c-.681-.521-1.35-1.061-2.025-1.591C13.648,23.179,13.587,23.141,13.5,23.082Zm-4.251-3.97c1.435,0,2.868-.008,4.3.008.266,0,.374-.089.449-.355a19.281,19.281,0,0,0,.637-6.67,14.576,14.576,0,0,0-1.21-4.972A18.016,18.016,0,0,0,9.639,1.663c-.329-.326-.473-.327-.8-.007A17.506,17.506,0,0,0,5.089,7.021a15.847,15.847,0,0,0-1.234,7.762,19.829,19.829,0,0,0,.668,3.941c.081.284.184.4.484.394,1.415-.023,2.833-.01,4.244-.01ZM5.133,20.529c.379.663.7,1.26,1.065,1.838a.563.563,0,0,0,.421.208q2.646.021,5.293,0a.5.5,0,0,0,.384-.156c.375-.6.72-1.222,1.108-1.891ZM2.1,23.625l2.2-1.736c-.3-.76-.608-1.469-.85-2.206s-.422-1.512-.637-2.3c-.472.6-.945,1.184-1.395,1.788a.64.64,0,0,0-.069.425c.073.49.171.975.263,1.461C1.773,21.887,1.932,22.717,2.1,23.625ZM16.4,23.59c.258-1.34.512-2.636.748-3.934a.786.786,0,0,0-.066-.533c-.431-.591-.9-1.154-1.361-1.741-.214.786-.39,1.553-.634,2.295s-.56,1.461-.852,2.206Z" transform="translate(0.003 0)" fill="#fff"/>
  <path id="Path_2" data-name="Path 2" d="M105.023,108.358a3.2,3.2,0,1,1,.051-6.4,3.246,3.246,0,0,1,3.17,3.224A3.168,3.168,0,0,1,105.023,108.358Zm1.931-3.171a1.93,1.93,0,1,0-3.86-.051,1.979,1.979,0,0,0,1.922,1.951A1.889,1.889,0,0,0,106.954,105.188Z" transform="translate(-95.783 -94.963)" fill="#fff"/>
</svg>
