<svg id="Locked" xmlns="http://www.w3.org/2000/svg" width="17.664" height="23.547" viewBox="0 0 17.664 23.547">
  <path id="Path_3" data-name="Path 3" d="M15.781,23.547H1.892c-.078-.026-.155-.055-.234-.076A2.177,2.177,0,0,1,.011,21.393Q0,16.187.011,10.981A2.157,2.157,0,0,1,1.839,8.874a10.165,10.165,0,0,1,1.11-.061V8.559c0-.927-.008-1.854,0-2.781a5.869,5.869,0,0,1,4-5.457C7.394.175,7.866.1,8.327,0H9.339L9.7.061a5.885,5.885,0,0,1,5.024,5.921V8.83c.288,0,.54,0,.792,0a2.188,2.188,0,0,1,2.146,2.146q.018,5.206,0,10.412A2.167,2.167,0,0,1,16.21,23.4C16.07,23.461,15.925,23.5,15.781,23.547ZM8.848,10.3H2.342a.759.759,0,0,0-.865.858v10.07a.753.753,0,0,0,.85.846H15.343a.753.753,0,0,0,.852-.846V11.161a.756.756,0,0,0-.863-.858ZM4.463,8.813h8.78c0-1.089,0-2.162,0-3.233a2.5,2.5,0,0,0-.057-.456A4.4,4.4,0,0,0,8.252,1.513,4.333,4.333,0,0,0,4.481,5.308C4.387,6.464,4.463,7.634,4.463,8.813Z" transform="translate(-0.005 0)" fill="#fff"/>
  <path id="Path_4" data-name="Path 4" d="M112.962,212.219c0-.3,0-.608,0-.912a.2.2,0,0,0-.119-.211,1.647,1.647,0,0,1-.881-1.832,1.657,1.657,0,0,1,3.205-.121,1.641,1.641,0,0,1-.792,1.921.3.3,0,0,0-.178.311c.008.563,0,1.126,0,1.688a.625.625,0,1,1-1.243.008C112.962,212.789,112.962,212.5,112.962,212.219Zm1.036-2.59a.414.414,0,1,0-.43.405.422.422,0,0,0,.43-.407Z" transform="translate(-104.755 -195.037)" fill="#fff"/>
</svg>
