<svg xmlns="http://www.w3.org/2000/svg" width="17.664" height="20.928" viewBox="0 0 17.664 20.928">
  <path id="PrivateSale" d="M8.669,20.928c-.561-.289-1.127-.566-1.681-.871a21.746,21.746,0,0,1-4.211-2.945A9.138,9.138,0,0,1,.426,14.033,5.048,5.048,0,0,1,0,12.009V3.2a.671.671,0,0,1,.564-.76Q4.545,1.243,8.523.048a1.03,1.03,0,0,1,.619,0q3.978,1.2,7.958,2.389a.669.669,0,0,1,.564.758v8.812a5.609,5.609,0,0,1-1.151,3.3,13.811,13.811,0,0,1-3.3,3.149,25.067,25.067,0,0,1-4.2,2.439c-.01,0-.016.02-.024.03ZM1.23,7.961v4.008a4,4,0,0,0,.424,1.793,8.609,8.609,0,0,0,2.164,2.633,22.483,22.483,0,0,0,4.871,3.162.38.38,0,0,0,.3,0,24.816,24.816,0,0,0,3.559-2.12A13.073,13.073,0,0,0,15.4,14.759,4.524,4.524,0,0,0,16.438,12q0-4.141,0-8.282a.229.229,0,0,0-.2-.263c-2.4-.715-4.8-1.439-7.2-2.152a.8.8,0,0,0-.432,0c-2.387.712-4.77,1.433-7.158,2.142-.173.051-.233.116-.232.3Q1.233,5.854,1.23,7.961Z" transform="translate(0 0)" fill="#fff"/>
</svg>
