<svg xmlns="http://www.w3.org/2000/svg" width="18.08" height="14.844" viewBox="0 0 18.08 14.844">
  <path id="Icon_awesome-twitter" data-name="Icon awesome-twitter" d="M15.459,6.868c.011.153.011.306.011.459A9.978,9.978,0,0,1,5.423,17.375,9.979,9.979,0,0,1,0,15.789a7.305,7.305,0,0,0,.853.044,7.072,7.072,0,0,0,4.384-1.509,3.538,3.538,0,0,1-3.3-2.449,4.453,4.453,0,0,0,.667.055,3.735,3.735,0,0,0,.929-.12A3.532,3.532,0,0,1,.7,8.344V8.3a3.556,3.556,0,0,0,1.6.448A3.537,3.537,0,0,1,1.2,4.026a10.038,10.038,0,0,0,7.281,3.7A3.986,3.986,0,0,1,8.4,6.912,3.535,3.535,0,0,1,14.508,4.5a6.952,6.952,0,0,0,2.241-.853A3.522,3.522,0,0,1,15.2,5.589a7.079,7.079,0,0,0,2.033-.547,7.591,7.591,0,0,1-1.771,1.826Z" transform="translate(0.425 -2.956)" fill="none" stroke="#fff" stroke-linecap="round" stroke-linejoin="round" stroke-width="0.85"/>
</svg>
